<svg width="15" height="15" viewBox="0 0 15 15" fill="none" xmlns="http://www.w3.org/2000/svg">
<path d="M7.5 15C11.6421 15 15 11.6421 15 7.5C15 3.35786 11.6421 0 7.5 0C3.35786 0 0 3.35786 0 7.5C0 11.6421 3.35786 15 7.5 15Z" fill="#FFDD67"/>
<path opacity="0.8" d="M12.2012 10.5C13.3057 10.5 14.2012 9.60457 14.2012 8.5C14.2012 7.39543 13.3057 6.5 12.2012 6.5C11.0966 6.5 10.2012 7.39543 10.2012 8.5C10.2012 9.60457 11.0966 10.5 12.2012 10.5Z" fill="#FF717F"/>
<path opacity="0.8" d="M2.80078 10.5C3.90535 10.5 4.80078 9.60457 4.80078 8.5C4.80078 7.39543 3.90535 6.5 2.80078 6.5C1.69621 6.5 0.800781 7.39543 0.800781 8.5C0.800781 9.60457 1.69621 10.5 2.80078 10.5Z" fill="#FF717F"/>
<path d="M10.6497 9.57549C8.62471 11.0005 6.37472 10.9755 4.34972 9.57549C4.09972 9.40049 3.89972 9.70049 4.04972 9.97549C4.67472 10.9755 5.89972 11.9005 7.49972 11.9005C9.09972 11.9005 10.3247 11.0005 10.9497 9.97549C11.0997 9.70049 10.8997 9.40049 10.6497 9.57549" fill="#664E27"/>
<path d="M6.62566 6.22578C6.15066 4.95078 5.45066 4.30078 4.75066 4.30078C4.05066 4.30078 3.35066 4.95078 2.87566 6.22578C2.82566 6.35078 3.07566 6.57578 3.20066 6.45078C3.65066 5.97578 4.20066 5.77578 4.75066 5.77578C5.30066 5.77578 5.85066 5.97578 6.30066 6.45078C6.45066 6.57578 6.67566 6.35078 6.62566 6.22578Z" fill="#664E27"/>
<path d="M12.1003 6.22578C11.6253 4.95078 10.9253 4.30078 10.2253 4.30078C9.52527 4.30078 8.82527 4.95078 8.35027 6.22578C8.30027 6.35078 8.55027 6.57578 8.67527 6.45078C9.12527 5.97578 9.67527 5.77578 10.2253 5.77578C10.7753 5.77578 11.3253 5.97578 11.7753 6.45078C11.9003 6.57578 12.1503 6.35078 12.1003 6.22578Z" fill="#664E27"/>
</svg>
