<svg width="15" height="15" viewBox="0 0 15 15" fill="none" xmlns="http://www.w3.org/2000/svg">
<path d="M7.5 15C11.6421 15 15 11.6421 15 7.5C15 3.35786 11.6421 0 7.5 0C3.35786 0 0 3.35786 0 7.5C0 11.6421 3.35786 15 7.5 15Z" fill="#FFDD67"/>
<path d="M5.07422 8.64844C5.76457 8.64844 6.32422 8.08879 6.32422 7.39844C6.32422 6.70808 5.76457 6.14844 5.07422 6.14844C4.38386 6.14844 3.82422 6.70808 3.82422 7.39844C3.82422 8.08879 4.38386 8.64844 5.07422 8.64844Z" fill="#664E27"/>
<path d="M12.2998 6.37658C11.4998 5.70158 10.4248 5.40158 9.37475 5.60158C9.22475 5.62658 9.09975 5.10158 9.27475 5.05158C10.4748 4.82658 11.7247 5.17658 12.6497 5.95158C12.7998 6.07658 12.3998 6.47658 12.2998 6.37658Z" fill="#917524"/>
<path d="M5.62468 4.20172C4.57468 4.02672 3.49968 4.30172 2.69968 4.97672C2.59968 5.07672 2.19968 4.67672 2.34968 4.55172C3.27468 3.75172 4.52468 3.42672 5.72468 3.65172C5.89968 3.70172 5.77468 4.22672 5.62468 4.20172Z" fill="#917524"/>
<path d="M12.0501 8.075C11.6251 7.2 10.9501 6.75 10.3001 6.75C9.6501 6.75 9.0001 7.2 8.5501 8.075C8.5001 8.175 8.7251 8.325 8.8501 8.225C9.2751 7.9 9.7751 7.775 10.3001 7.775C10.8251 7.775 11.3251 7.9 11.7501 8.225C11.8501 8.3 12.0751 8.15 12.0501 8.075Z" fill="#664E27"/>
<path d="M10.5244 10.0508C8.79939 10.9508 6.42439 10.7758 5.74939 10.7758C5.57439 10.7758 5.44939 10.8508 5.49939 11.0008C5.99939 12.7508 9.74939 12.7508 10.7744 10.3258C10.8994 10.0508 10.6994 9.97583 10.5244 10.0508" fill="#664E27"/>
</svg>
