<svg width="15" height="15" viewBox="0 0 15 15" fill="none" xmlns="http://www.w3.org/2000/svg">
<path d="M7.5 15C11.6421 15 15 11.6421 15 7.5C15 3.35786 11.6421 0 7.5 0C3.35786 0 0 3.35786 0 7.5C0 11.6421 3.35786 15 7.5 15Z" fill="#FFDD67"/>
<path d="M12.4253 4.34827C12.5753 4.42327 12.5003 4.59827 12.3753 4.62327C11.7003 4.72327 11.0003 4.84827 10.3003 5.22327C11.3003 5.39827 12.1003 5.89827 12.5503 6.42327C12.6503 6.54827 12.5253 6.69827 12.4253 6.67327C11.2253 6.24827 10.0003 5.99827 8.47534 6.17327C8.35034 6.17327 8.25034 6.12327 8.27534 5.99827C8.67534 4.17327 11.0003 3.49827 12.4253 4.34827" fill="#664E27"/>
<path d="M2.57583 4.34827C2.42583 4.42327 2.50083 4.59827 2.62583 4.62327C3.30083 4.72327 4.00083 4.84827 4.70083 5.22327C3.70083 5.39827 2.90083 5.89827 2.45083 6.42327C2.35083 6.54827 2.47583 6.69827 2.57583 6.67327C3.77583 6.24827 5.00083 5.99827 6.52583 6.17327C6.65083 6.17327 6.75083 6.12327 6.72583 5.99827C6.32583 4.17327 4.00083 3.49827 2.57583 4.34827Z" fill="#664E27"/>
<path d="M11.9265 8.09813C11.8265 7.97313 11.6515 7.99813 11.4515 7.99813H3.55154C3.35154 7.99813 3.17654 7.97313 3.07654 8.09813C2.10154 9.34813 3.25154 12.9981 7.50154 12.9981C11.7515 12.9981 12.9015 9.34813 11.9265 8.09813Z" fill="#664E27"/>
<path d="M7.95039 9.92578C7.80039 9.92578 7.57539 10.0508 7.67539 10.4258C7.72539 10.6008 7.97539 10.8258 7.97539 11.1258C7.97539 11.7258 7.02539 11.7258 7.02539 11.1258C7.02539 10.8258 7.27539 10.6258 7.32539 10.4258C7.40039 10.0758 7.17539 9.92578 7.05039 9.92578C6.65039 9.92578 6.02539 10.3508 6.02539 11.0758C6.02539 11.8758 6.70039 12.5258 7.52539 12.5258C8.35039 12.5258 9.02539 11.8758 9.02539 11.0758C9.00039 10.3758 8.35039 9.95078 7.95039 9.92578Z" fill="#4C3526"/>
<path d="M5.57422 12.175C6.12422 12.425 6.77422 12.55 7.49922 12.55C8.22422 12.55 8.87422 12.4 9.42422 12.175C8.89922 11.9 8.24922 11.75 7.49922 11.75C6.74922 11.75 6.09922 11.9 5.57422 12.175Z" fill="#FF717F"/>
<path d="M11.2508 8.5H3.77584C3.25084 8.5 3.25084 9.5 3.75084 9.5H11.2508C11.7508 9.5 11.7508 8.5 11.2508 8.5Z" fill="white"/>
</svg>
