<svg width="15" height="15" viewBox="0 0 15 15" fill="none" xmlns="http://www.w3.org/2000/svg">
<path d="M7.5 15C11.6421 15 15 11.6421 15 7.5C15 3.35786 11.6421 0 7.5 0C3.35786 0 0 3.35786 0 7.5C0 11.6421 3.35786 15 7.5 15Z" fill="#FFDD67"/>
<path d="M4.625 7.39844C5.31536 7.39844 5.875 6.83879 5.875 6.14844C5.875 5.45808 5.31536 4.89844 4.625 4.89844C3.93464 4.89844 3.375 5.45808 3.375 6.14844C3.375 6.83879 3.93464 7.39844 4.625 7.39844Z" fill="#664E27"/>
<path d="M10.375 7.39844C11.0654 7.39844 11.625 6.83879 11.625 6.14844C11.625 5.45808 11.0654 4.89844 10.375 4.89844C9.68464 4.89844 9.125 5.45808 9.125 6.14844C9.125 6.83879 9.68464 7.39844 10.375 7.39844Z" fill="#664E27"/>
<path d="M10.6497 9.57158C8.62471 10.9966 6.37472 10.9716 4.34972 9.57158C4.09972 9.39658 3.89972 9.69658 4.04972 9.97158C4.67472 10.9716 5.89972 11.8966 7.49972 11.8966C9.09972 11.8966 10.3247 10.9966 10.9497 9.97158C11.0997 9.69658 10.8997 9.39658 10.6497 9.57158" fill="#664E27"/>
</svg>
