<svg width="15" height="15" viewBox="0 0 15 15" fill="none" xmlns="http://www.w3.org/2000/svg">
<path d="M7.5 0C11.65 0 15 3.35 15 7.5C15 11.65 11.65 15 7.5 15C3.35 15 0 11.65 0 7.5C0 3.35 3.35 0 7.5 0Z" fill="#FFDD67"/>
<path d="M8.44928 4.62359C7.89928 4.89859 7.07428 4.89859 6.52428 4.62359C5.94928 4.32359 5.22428 4.12359 4.34928 4.04859C3.49928 3.97359 1.72428 3.97359 0.849281 4.29859C0.749281 4.32359 0.649281 4.37359 0.549281 4.42359C0.524281 4.44859 0.499281 4.47359 0.499281 4.57359V4.69859C0.499281 4.94859 0.474281 4.84859 0.649281 4.94859C0.999281 5.14859 1.19928 5.67359 1.29928 6.39859C1.44928 7.44859 1.97428 8.12359 2.79928 8.42359C3.57428 8.72359 4.44928 8.69859 5.22428 8.39859C5.64928 8.22359 6.02428 7.97359 6.32428 7.52359C6.84928 6.77359 6.67428 6.29859 6.94928 5.64859C7.17428 5.07359 7.82428 5.07359 8.07428 5.64859C8.34928 6.29859 8.17428 6.77359 8.69928 7.52359C8.99928 7.94859 9.37428 8.22359 9.79928 8.39859C10.5743 8.69859 11.4493 8.72359 12.2243 8.42359C13.0743 8.09859 13.5743 7.44859 13.7243 6.39859C13.8243 5.67359 14.0243 5.14859 14.3743 4.94859C14.5493 4.84859 14.5243 4.94859 14.5243 4.69859V4.57359C14.5243 4.47359 14.5243 4.44859 14.4493 4.42359C14.3493 4.37359 14.2493 4.32359 14.1493 4.29859C13.2493 3.97359 11.4743 3.97359 10.6493 4.04859C9.77428 4.12359 9.04928 4.32359 8.44928 4.62359Z" fill="#494949"/>
<path d="M10.6497 10.0755C8.62471 11.5005 6.37472 11.4755 4.34972 10.0755C4.09972 9.90049 3.89972 10.2005 4.04972 10.4755C4.67472 11.4755 5.89972 12.4005 7.49972 12.4005C9.09972 12.4005 10.3247 11.5005 10.9497 10.4755C11.0997 10.2005 10.8997 9.90049 10.6497 10.0755" fill="#664E27"/>
</svg>
