<svg width="15" height="15" viewBox="0 0 15 15" fill="none" xmlns="http://www.w3.org/2000/svg">
<path d="M7.5 15C11.6421 15 15 11.6421 15 7.5C15 3.35786 11.6421 0 7.5 0C3.35786 0 0 3.35786 0 7.5C0 11.6421 3.35786 15 7.5 15Z" fill="#FFDD67"/>
<path d="M12.7012 10.7734C13.8057 10.7734 14.7012 9.87801 14.7012 8.77344C14.7012 7.66887 13.8057 6.77344 12.7012 6.77344C11.5966 6.77344 10.7012 7.66887 10.7012 8.77344C10.7012 9.87801 11.5966 10.7734 12.7012 10.7734Z" fill="#FF717F"/>
<path d="M2.30078 10.7734C3.40535 10.7734 4.30078 9.87801 4.30078 8.77344C4.30078 7.66887 3.40535 6.77344 2.30078 6.77344C1.19621 6.77344 0.300781 7.66887 0.300781 8.77344C0.300781 9.87801 1.19621 10.7734 2.30078 10.7734Z" fill="#FF717F"/>
<path d="M13.1494 4.64922C12.4744 3.82422 11.4744 3.37422 10.3994 3.37422C10.2494 3.37422 10.2244 2.82422 10.3994 2.82422C11.6244 2.82422 12.7744 3.34922 13.5744 4.29922C13.6994 4.44922 13.2494 4.77422 13.1494 4.64922" fill="#917524"/>
<path d="M4.57489 3.35078C3.52489 3.35078 2.49989 3.82578 1.82489 4.62578C1.72489 4.75078 1.29989 4.42578 1.39989 4.27578C2.17489 3.32578 3.34989 2.80078 4.57489 2.80078C4.74989 2.80078 4.72489 3.35078 4.57489 3.35078" fill="#917524"/>
<path d="M7.5 13C8.12132 13 8.625 12.4963 8.625 11.875C8.625 11.2537 8.12132 10.75 7.5 10.75C6.87868 10.75 6.375 11.2537 6.375 11.875C6.375 12.4963 6.87868 13 7.5 13Z" fill="#664E27"/>
<path d="M6.875 6.77344C6.875 8.02344 5.875 9.02344 4.625 9.02344C3.375 9.02344 2.375 8.02344 2.375 6.77344C2.375 5.52344 3.375 4.52344 4.625 4.52344C5.875 4.52344 6.875 5.54844 6.875 6.77344Z" fill="white"/>
<path d="M4.625 7.89844C5.24632 7.89844 5.75 7.39476 5.75 6.77344C5.75 6.15212 5.24632 5.64844 4.625 5.64844C4.00368 5.64844 3.5 6.15212 3.5 6.77344C3.5 7.39476 4.00368 7.89844 4.625 7.89844Z" fill="#664E27"/>
<path d="M12.625 6.77344C12.625 8.02344 11.625 9.02344 10.375 9.02344C9.125 9.02344 8.125 8.02344 8.125 6.77344C8.125 5.52344 9.125 4.52344 10.375 4.52344C11.625 4.52344 12.625 5.54844 12.625 6.77344Z" fill="white"/>
<path d="M10.375 7.89844C10.9963 7.89844 11.5 7.39476 11.5 6.77344C11.5 6.15212 10.9963 5.64844 10.375 5.64844C9.75368 5.64844 9.25 6.15212 9.25 6.77344C9.25 7.39476 9.75368 7.89844 10.375 7.89844Z" fill="#664E27"/>
</svg>
