<svg width="16" height="16" viewBox="0 0 16 16" fill="none" xmlns="http://www.w3.org/2000/svg">
<path d="M15.0156 7.50781C15.0156 11.6578 11.6656 15.0078 7.51562 15.0078C3.36562 15.0078 0.015625 11.6578 0.015625 7.50781C0.015625 3.35781 3.36562 0.0078125 7.51562 0.0078125C11.6656 0.0078125 15.0156 3.35781 15.0156 7.50781Z" fill="#FFDD67"/>
<path d="M14.9663 2.80922C14.8413 2.13422 14.4663 1.58422 13.8413 1.40922C13.1663 1.23422 12.5663 1.48422 11.9913 2.08422C11.6663 1.18422 11.1663 0.509223 10.3663 0.159223C9.56629 -0.190777 8.76629 0.0592232 8.26629 0.684223C7.74129 1.33422 7.54129 2.35922 8.09129 3.68422C8.61629 4.93422 10.9413 7.43422 11.0163 7.50922C11.1163 7.45922 13.7163 5.83422 14.3413 5.03422C14.9663 4.25922 15.0913 3.48422 14.9663 2.80922" fill="#F46767"/>
<path d="M6.76575 0.684223C6.26575 0.0592232 5.46575 -0.190777 4.66575 0.159223C3.86575 0.509223 3.36575 1.18422 3.04075 2.08422C2.44075 1.50922 1.84075 1.23422 1.16575 1.43422C0.565754 1.60922 0.165754 2.15922 0.0407545 2.83422C-0.0842455 3.48422 0.0657545 4.28422 0.665754 5.05922C1.31575 5.83422 3.91575 7.45922 4.01575 7.50922C4.09075 7.43422 6.41575 4.93422 6.94075 3.68422C7.49075 2.35922 7.29075 1.35922 6.76575 0.684223" fill="#F46767"/>
<path d="M11.7656 9.03359C11.7656 8.83359 11.6406 8.58359 11.3156 8.50859C10.4406 8.33359 9.16562 8.18359 7.51562 8.18359C5.86563 8.18359 4.59062 8.35859 3.71562 8.50859C3.36562 8.58359 3.26562 8.83359 3.26562 9.03359C3.26562 10.8586 4.66563 12.6836 7.51562 12.6836C10.3656 12.6586 11.7656 10.8336 11.7656 9.03359Z" fill="#664E27"/>
<path d="M10.69 9.08203C10.14 8.98203 8.99 8.83203 7.515 8.83203C6.04 8.83203 4.89 8.98203 4.34 9.08203C4.015 9.13203 3.99 9.25703 4.015 9.45703C4.04 9.55703 4.04 9.70703 4.09 9.85703C4.115 10.007 4.165 10.082 4.415 10.057C4.89 10.007 10.165 10.007 10.64 10.057C10.89 10.082 10.915 10.007 10.965 9.85703C10.99 9.70703 11.015 9.58203 11.04 9.45703C11.04 9.25703 11.015 9.13203 10.69 9.08203" fill="white"/>
</svg>
